<svg width="207" height="236" viewBox="0 0 207 236" version="1.1" xmlns="http://www.w3.org/2000/svg" xmlns:xlink="http://www.w3.org/1999/xlink">
<title>scalable</title>
<desc>Created using Figma</desc>
<g id="Canvas" transform="translate(323 219)">
<g id="scalable">
<use xlink:href="#path0_fill" transform="matrix(-1.42824 0 -0 -1.42824 -116.286 16.7721)" fill="#1A1126"/>
<use xlink:href="#path0_fill" transform="matrix(-1.42824 0 -0 -1.42824 -116.286 16.7721)" fill="url(#paint1_linear)"/>
<mask id="mask0_outline_ins">
<use xlink:href="#path0_fill" fill="white" transform="matrix(-1.42824 0 -0 -1.42824 -116.286 16.7721)"/>
</mask>
<g mask="url(#mask0_outline_ins)">
<use xlink:href="#path1_stroke_2x" transform="matrix(-1.42824 0 -0 -1.42824 -116.286 16.7721)"/>
</g>
</g>
</g>
<defs>
<linearGradient id="paint1_linear" x1="0" y1="0" x2="1" y2="0" gradientUnits="userSpaceOnUse" gradientTransform="matrix(-4.78176e-07 -165.239 144.873 -4.21188e-07 0.179835 165.079)">
<stop offset="0" stop-color="#C93A51"/>
<stop offset="0.68787" stop-color="#8F1E30" stop-opacity="0"/>
</linearGradient>
<path id="path0_fill" d="M 144.065 119.466C 144.066 119.469 144.068 119.471 144.069 119.474C 145.412 121.806 144.653 124.787 142.379 126.196C 142.286 126.253 142.19 126.307 142.095 126.362L 77.4485 163.681C 77.3807 163.721 77.313 163.76 77.2448 163.798C 75.8004 164.612 74.1409 165.079 72.3678 165.079C 70.5836 165.079 68.914 164.608 67.4649 163.787C 67.41 163.756 67.3555 163.724 67.3009 163.693L 3.39638 126.781C 3.32664 126.74 3.25667 126.7 3.18798 126.658C 1.75871 125.784 0.790774 124.217 0.790774 122.419C 0.790774 120.589 1.79608 118.995 3.2744 118.131C 3.28862 118.123 3.30291 118.115 3.31717 118.107L 29.3518 103.053C 29.4358 103.004 29.5205 102.957 29.6027 102.905C 31.293 101.843 31.8547 99.6191 30.8484 97.8729C 30.8473 97.871 30.8462 97.869 30.8451 97.8671L 0.680003 45.6213C 0.671851 45.6072 0.663612 45.5929 0.655525 45.5788C -0.667952 43.2621 0.0758334 40.3184 2.31702 38.906C 2.4339 38.8324 2.55459 38.7645 2.67424 38.6955L 67.3021 1.38915C 67.3599 1.35579 67.4176 1.32226 67.4756 1.28941C 68.9225 0.471011 70.5856 0 72.3678 0C 74.1751 0 75.8666 0.484877 77.3262 1.32551C 77.3419 1.33456 77.3576 1.34365 77.3733 1.35272L 141.437 38.3565C 141.439 38.3575 141.441 38.3561 141.441 38.354L 141.441 38.354C 141.441 38.3519 141.443 38.3505 141.445 38.3515C 142.931 39.2121 143.939 40.8108 143.941 42.649C 143.939 44.4553 142.976 46.0137 141.542 46.8868C 141.472 46.9292 141.402 46.9695 141.331 47.0102L 115.303 62.06C 115.27 62.0794 115.236 62.0988 115.202 62.1187C 113.458 63.1619 112.863 65.4228 113.885 67.1965C 113.886 67.1982 113.887 67.2 113.888 67.2017L 144.065 119.466ZM 16.6397 119.049C 16.4658 119.15 16.2893 119.247 16.1236 119.361C 15.1494 120.029 14.5038 121.147 14.5038 122.419C 14.5038 123.667 15.1245 124.767 16.0669 125.447C 16.2681 125.592 16.4862 125.712 16.701 125.836L 53.0062 146.8C 53.7452 147.227 54.4844 147.77 55.3378 147.77L 55.3378 147.77C 56.7178 147.77 57.8328 146.65 57.8338 145.28C 57.8337 145.238 57.8325 145.196 57.8303 145.155C 57.7886 144.371 57.2937 143.7 56.9017 143.021L 38.4123 110.97C 38.3546 110.87 38.2979 110.769 38.2355 110.672C 37.2143 109.082 35.1547 108.502 33.4596 109.33C 33.2948 109.411 33.1374 109.506 32.9786 109.598L 16.6397 119.049ZM 17.9903 60.5815C 18.0838 60.8143 18.2185 61.0277 18.3439 61.245L 37.257 94.0196C 37.2995 94.0932 37.3415 94.1674 37.3863 94.2397C 38.4034 95.8775 40.5046 96.4631 42.2237 95.6103C 42.3632 95.5411 42.4972 95.461 42.6319 95.383L 59.069 85.8733C 59.1995 85.7978 59.3312 85.7239 59.4569 85.6406C 60.4677 84.9702 61.1393 83.8384 61.1478 82.5391C 61.1478 81.2006 60.4376 80.0393 59.3921 79.3836C 59.3115 79.333 59.2286 79.2863 59.1462 79.2387L 22.6411 58.1514C 21.9009 57.7238 21.1594 57.199 20.3048 57.1801L 20.3048 57.1801C 18.9298 57.1801 17.8138 58.3001 17.8158 59.6691C 17.8144 59.9948 17.8774 60.3002 17.9903 60.5815ZM 68.6088 15.9294C 68.6088 15.7899 68.6105 15.6502 68.6026 15.5109C 68.5335 14.2952 67.888 13.1318 66.7558 12.4801C 65.5984 11.8151 64.245 11.8467 63.1458 12.4307C 63.063 12.4747 62.9822 12.5225 62.9009 12.5694L 16.6976 39.2461C 16.4864 39.3681 16.272 39.4858 16.0738 39.6279C 15.1268 40.3068 14.5038 41.4005 14.5038 42.65C 14.5011 43.9042 15.122 44.9955 16.0624 45.6743C 16.2664 45.8216 16.4878 45.9429 16.7057 46.0688L 62.6157 72.575C 62.8871 72.7317 63.1552 72.8964 63.4441 73.0179C 64.4853 73.4557 65.7039 73.4349 66.7598 72.8201C 67.9097 72.155 68.5626 70.9603 68.6064 69.7196C 68.6097 69.6266 68.6088 69.5336 68.6088 69.4405L 68.6088 15.9294ZM 68.6238 139.051C 68.6238 139.05 68.6238 139.05 68.6238 139.049L 68.6088 95.5211C 68.6088 95.5004 68.6088 95.4798 68.6087 95.4591C 68.5982 94.1801 67.9432 92.9444 66.7558 92.25C 65.6698 91.6245 64.4056 91.6154 63.3459 92.1032C 63.1267 92.2042 62.9202 92.3302 62.7111 92.4507L 46.2265 101.946C 46.1874 101.969 46.1479 101.991 46.1091 102.015C 44.4265 103.026 43.8219 105.173 44.7048 106.914C 44.765 107.033 44.8331 107.148 44.8996 107.263L 63.7485 139.884C 63.9127 140.168 64.0657 140.462 64.2828 140.708C 64.7372 141.223 65.3964 141.548 66.1338 141.539C 67.4876 141.539 68.5845 140.471 68.623 139.129C 68.6237 139.103 68.6238 139.077 68.6238 139.051L 68.6238 139.051ZM 76.1228 149.345C 76.1228 149.348 76.1228 149.352 76.1228 149.355C 76.1245 150.643 76.7793 151.901 77.9768 152.59C 79.0923 153.234 80.4013 153.225 81.4784 152.7C 81.6319 152.625 81.7788 152.537 81.9267 152.452L 128.054 125.824C 128.255 125.708 128.459 125.596 128.648 125.461C 129.602 124.784 130.23 123.685 130.228 122.419C 130.23 121.169 129.608 120.067 128.659 119.395C 128.461 119.255 128.248 119.14 128.038 119.019L 82.0042 92.4429C 81.8046 92.3276 81.6074 92.2072 81.3984 92.11C 80.3369 91.6169 79.0644 91.6308 77.9718 92.25C 76.7763 92.9491 76.1215 94.1969 76.1198 95.4851C 76.1198 95.4884 76.1198 95.4918 76.1198 95.4951L 76.1228 149.345ZM 78.5978 23.53C 77.2435 23.53 76.1387 24.6144 76.1034 25.961C 76.1029 25.9803 76.1028 25.9998 76.1028 26.0191L 76.1028 26.0191C 76.1028 26.0197 76.1028 26.0203 76.1028 26.0209L 76.1228 69.5388C 76.1228 69.5663 76.1227 69.5939 76.123 69.6214C 76.1368 70.8969 76.7905 72.1374 77.9718 72.8201C 79.1071 73.4713 80.4304 73.4544 81.5138 72.9125C 81.643 72.8478 81.7674 72.774 81.8926 72.7018L 98.5424 63.1001C 98.554 63.0934 98.5657 63.0867 98.5772 63.08C 100.336 62.0541 100.949 59.8133 99.9541 58.0363C 99.9368 58.0055 99.919 57.9748 99.9013 57.9443L 81.4034 25.9093C 80.961 25.1431 80.5722 24.2763 79.8004 23.8439C 79.4445 23.6445 79.0351 23.53 78.5978 23.53ZM 128.148 45.9979C 128.284 45.9193 128.421 45.8425 128.552 45.7554C 129.558 45.0845 130.227 43.9555 130.231 42.65C 130.231 41.3719 129.577 40.2473 128.594 39.5798C 128.437 39.4733 128.271 39.3817 128.106 39.2868L 91.7267 18.2708C 90.9861 17.843 90.245 17.3 89.3898 17.3L 89.3898 17.3C 88.0148 17.3 86.8968 18.4191 86.8988 19.7891C 86.8988 19.9992 86.9256 20.2005 86.9748 20.3917C 87.0901 20.8393 87.3553 21.2302 87.5863 21.6307L 106.373 54.1936C 106.395 54.2312 106.417 54.2691 106.439 54.3064C 107.462 56.0133 109.643 56.6121 111.392 55.6865C 111.473 55.6437 111.552 55.5971 111.632 55.5513L 128.148 45.9979ZM 107.459 71.022C 107.428 70.9674 107.396 70.9123 107.363 70.8585C 106.328 69.1598 104.138 68.5746 102.392 69.5203C 102.332 69.5526 102.273 69.5871 102.215 69.621L 85.5457 79.2633C 85.4917 79.2945 85.4376 79.3254 85.3845 79.3579C 84.3078 80.0174 83.5877 81.1823 83.5858 82.53C 83.5858 83.8091 84.2286 84.9203 85.2026 85.5957C 85.3703 85.712 85.5491 85.811 85.7258 85.913L 123.134 107.512C 123.179 107.537 123.223 107.563 123.268 107.588C 123.614 107.775 124.003 107.89 124.425 107.89C 125.799 107.89 126.919 106.77 126.917 105.4C 126.917 104.972 126.807 104.579 126.619 104.228C 126.591 104.176 126.561 104.124 126.531 104.073L 107.459 71.022Z"/>
<path id="path1_stroke_2x" d="M 143.941 42.649L 144.241 42.6494L 144.241 42.6487L 143.941 42.649ZM 57.8338 145.28L 58.1338 145.28L 58.1338 145.279L 57.8338 145.28ZM 61.1478 82.5391L 61.4478 82.541L 61.4478 82.5391L 61.1478 82.5391ZM 17.8158 59.6691L 18.1158 59.6704L 18.1158 59.6686L 17.8158 59.6691ZM 66.7558 12.4801L 66.9054 12.2201L 66.9052 12.22L 66.7558 12.4801ZM 14.5038 42.65L 14.8038 42.6507L 14.8038 42.65L 14.5038 42.65ZM 66.7598 72.8201L 66.6096 72.5604L 66.6088 72.5608L 66.7598 72.8201ZM 66.7558 92.25L 66.9072 91.991L 66.9055 91.99L 66.7558 92.25ZM 66.1338 141.539L 66.1338 141.239L 66.1302 141.239L 66.1338 141.539ZM 77.9768 152.59L 78.1268 152.33L 78.1264 152.33L 77.9768 152.59ZM 130.228 122.419L 129.928 122.418L 129.928 122.42L 130.228 122.419ZM 77.9718 92.25L 77.8239 91.989L 77.8203 91.991L 77.9718 92.25ZM 77.9718 72.8201L 77.8217 73.0798L 77.8225 73.0803L 77.9718 72.8201ZM 130.231 42.65L 130.531 42.6509L 130.531 42.65L 130.231 42.65ZM 86.8988 19.7891L 87.1988 19.7891L 87.1988 19.7886L 86.8988 19.7891ZM 83.5858 82.53L 83.2858 82.5296L 83.2858 82.53L 83.5858 82.53ZM 126.917 105.4L 126.617 105.4L 126.617 105.4L 126.917 105.4ZM 126.619 104.228L 126.884 104.086L 126.619 104.228ZM 126.531 104.073L 126.791 103.923L 126.531 104.073ZM 123.134 107.512L 123.284 107.252L 123.134 107.512ZM 123.268 107.588L 123.411 107.324L 123.268 107.588ZM 85.2026 85.5957L 85.3735 85.3492L 85.2026 85.5957ZM 85.7258 85.913L 85.5758 86.1729L 85.7258 85.913ZM 85.5457 79.2633L 85.3954 79.0036L 85.5457 79.2633ZM 85.3845 79.3579L 85.5412 79.6137L 85.3845 79.3579ZM 102.392 69.5203L 102.249 69.2565L 102.392 69.5203ZM 102.215 69.621L 102.365 69.8807L 102.215 69.621ZM 107.363 70.8585L 107.107 71.0146L 107.363 70.8585ZM 107.459 71.022L 107.199 71.1719L 107.459 71.022ZM 111.392 55.6865L 111.252 55.4213L 111.392 55.6865ZM 111.632 55.5513L 111.782 55.811L 111.632 55.5513ZM 106.373 54.1936L 106.113 54.3435L 106.113 54.3435L 106.373 54.1936ZM 106.439 54.3064L 106.696 54.1522L 106.439 54.3064ZM 86.9748 20.3917L 86.6843 20.4665L 86.9748 20.3917ZM 87.5863 21.6307L 87.8462 21.4807L 87.8462 21.4807L 87.5863 21.6307ZM 91.7267 18.2708L 91.8767 18.011L 91.7267 18.2708ZM 128.594 39.5798L 128.762 39.3316L 128.594 39.5798ZM 128.106 39.2868L 127.956 39.5466L 128.106 39.2868ZM 128.552 45.7554L 128.385 45.5058L 128.552 45.7554ZM 128.148 45.9979L 128.298 46.2576L 128.148 45.9979ZM 81.4034 25.9093L 81.1436 26.0593L 81.4034 25.9093ZM 79.8004 23.8439L 79.6537 24.1056L 79.8004 23.8439ZM 99.9541 58.0363L 99.6923 58.1828L 99.9541 58.0363ZM 99.9013 57.9443L 99.6415 58.0943L 99.9013 57.9443ZM 98.5424 63.1001L 98.6923 63.36L 98.5424 63.1001ZM 98.5772 63.08L 98.7284 63.3391L 98.5772 63.08ZM 81.5138 72.9125L 81.648 73.1808L 81.5138 72.9125ZM 81.8926 72.7018L 82.0424 72.9617L 81.8926 72.7018ZM 76.1228 69.5388L 75.8228 69.5389L 76.1228 69.5388ZM 76.123 69.6214L 75.823 69.6247L 76.123 69.6214ZM 76.1028 26.0209L 75.8028 26.0211L 76.1028 26.0209ZM 76.1034 25.961L 75.8035 25.9531L 76.1034 25.961ZM 76.1198 95.4851L 75.8198 95.4847L 76.1198 95.4851ZM 76.1198 95.4951L 75.8198 95.4951L 76.1198 95.4951ZM 128.054 125.824L 128.204 126.084L 128.054 125.824ZM 128.648 125.461L 128.822 125.706L 128.648 125.461ZM 44.7048 106.914L 44.4373 107.05L 44.7048 106.914ZM 44.8996 107.263L 44.6399 107.413L 44.8996 107.263ZM 62.6157 72.575L 62.7657 72.3152L 62.6157 72.575ZM 63.4441 73.0179L 63.3278 73.2944L 63.4441 73.0179ZM 16.0624 45.6743L 16.2379 45.431L 16.0624 45.6743ZM 16.7057 46.0688L 16.5557 46.3286L 16.7057 46.0688ZM 16.6976 39.2461L 16.8476 39.5059L 16.6976 39.2461ZM 16.0738 39.6279L 16.2486 39.8718L 16.0738 39.6279ZM 63.1458 12.4307L 63.005 12.1658L 63.1458 12.4307ZM 62.9009 12.5694L 62.7509 12.3096L 62.9009 12.5694ZM 68.6026 15.5109L 68.3031 15.5279L 68.6026 15.5109ZM 22.6411 58.1514L 22.7911 57.8916L 22.6411 58.1514ZM 59.3921 79.3836L 59.2327 79.6378L 59.3921 79.3836ZM 59.1462 79.2387L 58.9961 79.4984L 59.1462 79.2387ZM 59.069 85.8733L 59.2192 86.133L 59.069 85.8733ZM 59.4569 85.6406L 59.6227 85.8906L 59.4569 85.6406ZM 42.2237 95.6103L 42.0904 95.3415L 42.2237 95.6103ZM 42.6319 95.383L 42.7822 95.6427L 42.6319 95.383ZM 37.257 94.0196L 37.5169 93.8696L 37.257 94.0196ZM 37.3863 94.2397L 37.6412 94.0814L 37.3863 94.2397ZM 18.3439 61.245L 18.084 61.3949L 18.3439 61.245ZM 17.9903 60.5815L 18.2687 60.4697L 17.9903 60.5815ZM 33.4596 109.33L 33.3279 109.061L 33.4596 109.33ZM 32.9786 109.598L 32.8284 109.338L 32.9786 109.598ZM 16.1236 119.361L 16.2933 119.608L 16.1236 119.361ZM 16.6397 119.049L 16.7899 119.309L 16.6397 119.049ZM 113.885 67.1965L 113.625 67.3463L 113.885 67.1965ZM 113.888 67.2017L 113.628 67.3517L 113.888 67.2017ZM 115.303 62.06L 115.153 61.8003L 115.303 62.06ZM 115.202 62.1187L 115.048 61.8612L 115.202 62.1187ZM 141.542 46.8868L 141.386 46.6306L 141.542 46.8868ZM 141.331 47.0102L 141.481 47.2699L 141.331 47.0102ZM 82.0042 92.4429L 81.8542 92.7027L 82.0042 92.4429ZM 81.3984 92.11L 81.5248 91.838L 81.3984 92.11ZM 141.445 38.3515L 141.295 38.6111L 141.445 38.3515ZM 128.659 119.395L 128.485 119.64L 128.659 119.395ZM 128.038 119.019L 128.188 118.759L 128.038 119.019ZM 141.437 38.3565L 141.587 38.0967L 141.437 38.3565ZM 77.3262 1.32551L 77.1765 1.58548L 77.3262 1.32551ZM 77.3733 1.35272L 77.2233 1.6125L 77.3733 1.35272ZM 76.1228 149.355L 76.4228 149.355L 76.1228 149.355ZM 76.1228 149.345L 76.4228 149.345L 76.1228 149.345ZM 0.680003 45.6213L 0.939808 45.4713L 0.680003 45.6213ZM 0.655525 45.5788L 0.916014 45.43L 0.916014 45.43L 0.655525 45.5788ZM 68.623 139.129L 68.3231 139.121L 68.623 139.129ZM 30.8484 97.8729L 31.1084 97.7231L 30.8484 97.8729ZM 30.8451 97.8671L 30.5853 98.0171L 30.8451 97.8671ZM 29.3518 103.053L 29.5019 103.313L 29.3518 103.053ZM 29.6027 102.905L 29.443 102.651L 29.6027 102.905ZM 63.7485 139.884L 63.4887 140.034L 63.7485 139.884ZM 64.2828 140.708L 64.0579 140.907L 64.2828 140.708ZM 3.2744 118.131L 3.12303 117.872L 3.2744 118.131ZM 3.31717 118.107L 3.46734 118.366L 3.31717 118.107ZM 57.8303 145.155L 57.5307 145.171L 57.8303 145.155ZM 56.9017 143.021L 56.6418 143.17L 56.9017 143.021ZM 63.3459 92.1032L 63.2204 91.8307L 63.3459 92.1032ZM 62.7111 92.4507L 62.8609 92.7106L 62.7111 92.4507ZM 67.4649 163.787L 67.6127 163.526L 67.4649 163.787ZM 67.3009 163.693L 67.1508 163.953L 67.3009 163.693ZM 68.6088 95.5211L 68.3088 95.5212L 68.6088 95.5211ZM 68.6087 95.4591L 68.3087 95.4615L 68.6087 95.4591ZM 77.4485 163.681L 77.5985 163.941L 77.4485 163.681ZM 77.2448 163.798L 77.0975 163.537L 77.2448 163.798ZM 81.4784 152.7L 81.3469 152.43L 81.4784 152.7ZM 81.9267 152.452L 82.0767 152.712L 81.9267 152.452ZM 67.3021 1.38915L 67.4521 1.64897L 67.3021 1.38915ZM 67.4756 1.28941L 67.3279 1.02829L 67.4756 1.28941ZM 53.0062 146.8L 53.1562 146.54L 53.0062 146.8ZM 68.6238 139.049L 68.9238 139.049L 68.6238 139.049ZM 142.379 126.196L 142.537 126.451L 142.379 126.196ZM 142.095 126.362L 141.945 126.102L 142.095 126.362ZM 38.4123 110.97L 38.1525 111.12L 38.4123 110.97ZM 38.2355 110.672L 38.4879 110.51L 38.2355 110.672ZM 46.2265 101.946L 46.3763 102.206L 46.2265 101.946ZM 46.1091 102.015L 45.9545 101.758L 46.1091 102.015ZM 3.39638 126.781L 3.24633 127.04L 3.39638 126.781ZM 3.18798 126.658L 3.34453 126.402L 3.18798 126.658ZM 2.31702 38.906L 2.47697 39.1598L 2.31702 38.906ZM 2.67424 38.6955L 2.52426 38.4357L 2.67424 38.6955ZM 16.0669 125.447L 15.8914 125.691L 16.0669 125.447ZM 16.701 125.836L 16.551 126.096L 16.701 125.836ZM 68.6064 69.7196L 68.9062 69.7302L 68.6064 69.7196ZM 144.069 119.474L 144.329 119.324L 144.069 119.474ZM 144.065 119.466L 143.805 119.616L 144.065 119.466ZM 143.809 119.624C 145.072 121.815 144.358 124.618 142.221 125.94L 142.537 126.451C 144.949 124.957 145.753 121.796 144.329 119.324L 143.809 119.624ZM 141.945 126.102L 77.2986 163.422L 77.5985 163.941L 142.245 126.622L 141.945 126.102ZM 77.0975 163.537C 75.6964 164.327 74.0874 164.779 72.3678 164.779L 72.3678 165.379C 74.1944 165.379 75.9044 164.898 77.3921 164.06L 77.0975 163.537ZM 72.3678 164.779C 70.6372 164.779 69.0183 164.322 67.6127 163.526L 67.317 164.048C 68.8096 164.894 70.53 165.379 72.3678 165.379L 72.3678 164.779ZM 67.4509 163.433L 3.54643 126.521L 3.24633 127.04L 67.1508 163.953L 67.4509 163.433ZM 3.34453 126.402C 1.99868 125.579 1.09077 124.106 1.09077 122.419L 0.490774 122.419C 0.490774 124.328 1.51874 125.989 3.03142 126.914L 3.34453 126.402ZM 1.09077 122.419C 1.09077 120.702 2.03366 119.204 3.42576 118.39L 3.12303 117.872C 1.55849 118.787 0.490774 120.476 0.490774 122.419L 1.09077 122.419ZM 3.46734 118.366L 29.5019 103.313L 29.2016 102.793L 3.167 117.847L 3.46734 118.366ZM 29.7623 103.159C 31.5888 102.011 32.1953 99.6094 31.1084 97.7231L 30.5885 98.0227C 31.5141 99.6289 30.9972 101.674 29.443 102.651L 29.7623 103.159ZM 31.1049 97.7171L 0.939808 45.4713L 0.420197 45.7713L 30.5853 98.0171L 31.1049 97.7171ZM 0.916014 45.43C -0.327677 43.253 0.371506 40.4867 2.47697 39.1598L 2.15708 38.6522C -0.219839 40.1501 -1.00823 43.2713 0.395036 45.7276L 0.916014 45.43ZM 2.82422 38.9553L 67.4521 1.64897L 67.1521 1.12933L 2.52426 38.4357L 2.82422 38.9553ZM 67.6233 1.55053C 69.027 0.756595 70.6394 0.3 72.3678 0.3L 72.3678 -0.3C 70.5318 -0.3 68.818 0.185428 67.3279 1.02829L 67.6233 1.55053ZM 72.3678 0.3C 74.1206 0.3 75.7607 0.770127 77.1765 1.58548L 77.4759 1.06554C 75.9724 0.199627 74.2295 -0.3 72.3678 -0.3L 72.3678 0.3ZM 77.2233 1.6125L 141.287 38.6163L 141.587 38.0967L 77.5234 1.09294L 77.2233 1.6125ZM 141.295 38.6111C 142.693 39.4211 143.639 40.9239 143.641 42.6494L 144.241 42.6487C 144.239 40.6978 143.168 39.0031 141.596 38.0919L 141.295 38.6111ZM 143.641 42.6487C 143.639 44.3445 142.736 45.8087 141.386 46.6306L 141.698 47.1431C 143.216 46.2187 144.239 44.5661 144.241 42.6494L 143.641 42.6487ZM 141.181 46.7505L 115.153 61.8003L 115.453 62.3197L 141.481 47.2699L 141.181 46.7505ZM 115.048 61.8612C 113.164 62.9884 112.521 65.4305 113.625 67.3463L 114.145 67.0467C 113.205 65.4151 113.752 63.3354 115.356 62.3762L 115.048 61.8612ZM 113.628 67.3517L 143.805 119.616L 144.324 119.316L 114.148 67.0517L 113.628 67.3517ZM 15.9539 119.113C 14.9028 119.834 14.2038 121.043 14.2038 122.419L 14.8038 122.419C 14.8038 121.251 15.3961 120.224 16.2933 119.608L 15.9539 119.113ZM 14.2038 122.419C 14.2038 123.77 14.8758 124.958 15.8914 125.691L 16.2425 125.204C 15.3731 124.577 14.8038 123.565 14.8038 122.419L 14.2038 122.419ZM 16.551 126.096L 52.8561 147.06L 53.1562 146.54L 16.851 125.576L 16.551 126.096ZM 55.3378 148.07C 56.8835 148.07 58.1327 146.816 58.1338 145.28L 57.5338 145.28C 57.5329 146.484 56.5521 147.47 55.3378 147.47L 55.3378 148.07ZM 58.1338 145.279C 58.1337 145.232 58.1324 145.185 58.1299 145.139L 57.5307 145.171C 57.5327 145.207 57.5337 145.244 57.5338 145.281L 58.1338 145.279ZM 57.1615 142.871L 38.6722 110.82L 38.1525 111.12L 56.6418 143.17L 57.1615 142.871ZM 38.4879 110.51C 37.3849 108.793 35.1604 108.165 33.3279 109.061L 33.5913 109.6C 35.149 108.839 37.0437 109.372 37.9831 110.834L 38.4879 110.51ZM 32.8284 109.338L 16.4895 118.789L 16.7899 119.309L 33.1288 109.858L 32.8284 109.338ZM 18.084 61.3949L 36.9972 94.1695L 37.5169 93.8696L 18.6037 61.0951L 18.084 61.3949ZM 37.1315 94.3979C 38.2308 96.1683 40.5006 96.8 42.357 95.879L 42.0904 95.3415C 40.5086 96.1263 38.5759 95.5868 37.6412 94.0814L 37.1315 94.3979ZM 42.7822 95.6427L 59.2192 86.133L 58.9187 85.6136L 42.4817 95.1234L 42.7822 95.6427ZM 59.6227 85.8906C 60.7117 85.1683 61.4386 83.9461 61.4478 82.541L 60.8478 82.5371C 60.84 83.7307 60.2237 84.772 59.291 85.3906L 59.6227 85.8906ZM 61.4478 82.5391C 61.4478 81.0912 60.6791 79.8367 59.5515 79.1295L 59.2327 79.6378C 60.1961 80.242 60.8478 81.3101 60.8478 82.5391L 61.4478 82.5391ZM 59.2962 78.9789L 22.7911 57.8916L 22.491 58.4111L 58.9961 79.4984L 59.2962 78.9789ZM 20.3048 56.8801C 18.764 56.8801 17.5135 58.1346 17.5158 59.6695L 18.1158 59.6686C 18.114 58.4656 19.0955 57.4801 20.3048 57.4801L 20.3048 56.8801ZM 17.5158 59.6678C 17.5142 60.0339 17.5851 60.3775 17.7119 60.6932L 18.2687 60.4697C 18.1696 60.2228 18.1145 59.9558 18.1158 59.6704L 17.5158 59.6678ZM 68.9021 15.4939C 68.8277 14.1847 68.1318 12.926 66.9054 12.2201L 66.6061 12.7401C 67.6442 13.3376 68.2393 14.4057 68.3031 15.5279L 68.9021 15.4939ZM 66.9052 12.22C 65.6533 11.5007 64.19 11.5361 63.005 12.1658L 63.2866 12.6956C 64.2999 12.1572 65.5434 12.1296 66.6063 12.7402L 66.9052 12.22ZM 62.7509 12.3096L 16.5476 38.9863L 16.8476 39.5059L 63.0509 12.8292L 62.7509 12.3096ZM 15.899 39.3841C 14.8791 40.1153 14.2038 41.2971 14.2038 42.65L 14.8038 42.65C 14.8038 41.504 15.3746 40.4984 16.2486 39.8718L 15.899 39.3841ZM 14.2038 42.6494C 14.2008 44.0069 14.8737 45.1863 15.8868 45.9175L 16.2379 45.431C 15.3702 44.8047 14.8013 43.8015 14.8038 42.6507L 14.2038 42.6494ZM 16.5557 46.3286L 62.4657 72.8348L 62.7657 72.3152L 16.8557 45.809L 16.5557 46.3286ZM 63.3278 73.2944C 64.449 73.7659 65.7672 73.7453 66.9108 73.0793L 66.6088 72.5608C 65.6407 73.1246 64.5216 73.1455 63.5604 72.7413L 63.3278 73.2944ZM 66.91 73.0798C 68.1548 72.3598 68.859 71.0677 68.9062 69.7302L 68.3066 69.709C 68.2662 70.8528 67.6647 71.9501 66.6096 72.5604L 66.91 73.0798ZM 68.9088 69.4405L 68.9088 15.9294L 68.3088 15.9294L 68.3088 69.4405L 68.9088 69.4405ZM 68.9238 139.049L 68.9088 95.521L 68.3088 95.5212L 68.3238 139.049L 68.9238 139.049ZM 68.9086 95.4567C 68.8974 94.0772 68.1903 92.7414 66.9072 91.991L 66.6043 92.509C 67.6961 93.1474 68.2991 94.2831 68.3087 95.4615L 68.9086 95.4567ZM 66.9055 91.99C 65.7306 91.3133 64.3634 91.3045 63.2204 91.8307L 63.4713 92.3757C 64.4478 91.9262 65.6091 91.9358 66.6061 92.51L 66.9055 91.99ZM 62.5614 92.1907L 46.0768 101.686L 46.3763 102.206L 62.8609 92.7106L 62.5614 92.1907ZM 45.9545 101.758C 44.136 102.851 43.4838 105.17 44.4373 107.05L 44.9724 106.779C 44.16 105.176 44.717 103.202 46.2637 102.272L 45.9545 101.758ZM 44.6399 107.413L 63.4887 140.034L 64.0082 139.734L 45.1594 107.113L 44.6399 107.413ZM 64.0579 140.907C 64.5661 141.483 65.3068 141.849 66.1374 141.839L 66.1302 141.239C 65.4859 141.247 64.9083 140.964 64.5078 140.51L 64.0579 140.907ZM 66.1338 141.839C 67.6494 141.839 68.8797 140.642 68.9228 139.138L 68.3231 139.121C 68.2893 140.3 67.3258 141.239 66.1338 141.239L 66.1338 141.839ZM 75.8228 149.356C 75.8246 150.744 76.5306 152.104 77.8271 152.85L 78.1264 152.33C 77.0281 151.698 76.4243 150.543 76.4228 149.355L 75.8228 149.356ZM 77.8268 152.85C 79.0342 153.547 80.449 153.535 81.6098 152.97L 81.3469 152.43C 80.3537 152.914 79.1505 152.921 78.1268 152.33L 77.8268 152.85ZM 82.0767 152.712L 128.204 126.084L 127.904 125.564L 81.7767 152.192L 82.0767 152.712ZM 128.822 125.706C 129.85 124.976 130.531 123.788 130.528 122.418L 129.928 122.42C 129.93 123.582 129.355 124.592 128.475 125.217L 128.822 125.706ZM 130.528 122.42C 130.531 121.067 129.856 119.876 128.832 119.15L 128.485 119.64C 129.359 120.259 129.93 121.271 129.928 122.418L 130.528 122.42ZM 128.188 118.759L 82.1542 92.1831L 81.8542 92.7027L 127.888 119.278L 128.188 118.759ZM 81.5248 91.838C 80.3786 91.3055 79.0037 91.3204 77.8239 91.989L 78.1197 92.511C 79.1251 91.9413 80.2953 91.9284 81.272 92.3821L 81.5248 91.838ZM 77.8203 91.991C 76.5284 92.7465 75.8216 94.0954 75.8198 95.4847L 76.4198 95.4855C 76.4213 94.2983 77.0242 93.1517 78.1232 92.509L 77.8203 91.991ZM 75.8198 95.4951L 75.8228 149.345L 76.4228 149.345L 76.4198 95.4951L 75.8198 95.4951ZM 78.5978 23.23C 77.0802 23.23 75.843 24.4448 75.8035 25.9531L 76.4033 25.9689C 76.4343 24.7841 77.4069 23.83 78.5978 23.83L 78.5978 23.23ZM 75.8028 26.0211L 75.8228 69.5389L 76.4228 69.5386L 76.4028 26.0208L 75.8028 26.0211ZM 75.823 69.6247C 75.8379 70.9989 76.5426 72.3406 77.8217 73.0798L 78.1219 72.5603C 77.0385 71.9342 76.4357 70.7949 76.423 69.6182L 75.823 69.6247ZM 77.8225 73.0803C 79.0501 73.7844 80.4801 73.765 81.648 73.1808L 81.3795 72.6442C 80.3808 73.1438 79.1642 73.1581 78.121 72.5598L 77.8225 73.0803ZM 82.0424 72.9617L 98.6923 63.36L 98.3926 62.8402L 81.7427 72.4419L 82.0424 72.9617ZM 98.7284 63.3391C 100.628 62.231 101.291 59.8098 100.216 57.8898L 99.6923 58.1828C 100.607 59.8168 100.043 61.8773 98.426 62.8209L 98.7284 63.3391ZM 100.161 57.7943L 81.6632 25.7593L 81.1436 26.0593L 99.6415 58.0943L 100.161 57.7943ZM 79.947 23.5821C 79.5479 23.3586 79.0882 23.23 78.5978 23.23L 78.5978 23.83C 78.982 23.83 79.3411 23.9304 79.6537 24.1056L 79.947 23.5821ZM 128.718 46.0051C 129.803 45.282 130.527 44.0623 130.531 42.6509L 129.931 42.6492C 129.927 43.8486 129.314 44.8869 128.385 45.5058L 128.718 46.0051ZM 130.531 42.65C 130.531 41.2668 129.823 40.0517 128.762 39.3316L 128.425 39.828C 129.331 40.4429 129.931 41.4769 129.931 42.65L 130.531 42.65ZM 128.257 39.027L 91.8767 18.011L 91.5766 18.5305L 127.956 39.5466L 128.257 39.027ZM 89.3898 17C 87.8494 17 86.5965 18.2532 86.5988 19.7895L 87.1988 19.7886C 87.197 18.585 88.1801 17.6 89.3898 17.6L 89.3898 17ZM 86.5988 19.7891C 86.5988 20.0249 86.6289 20.2514 86.6843 20.4665L 87.2653 20.3168C 87.2223 20.1497 87.1988 19.9735 87.1988 19.7891L 86.5988 19.7891ZM 87.3265 21.7806L 106.113 54.3435L 106.633 54.0436L 87.8462 21.4807L 87.3265 21.7806ZM 106.182 54.4606C 107.287 56.3051 109.644 56.9514 111.533 55.9517L 111.252 55.4213C 109.643 56.2727 107.636 55.7216 106.696 54.1522L 106.182 54.4606ZM 111.782 55.811L 128.298 46.2576L 127.998 45.7382L 111.481 55.2916L 111.782 55.811ZM 107.62 70.7024C 106.501 68.8667 104.135 68.235 102.249 69.2565L 102.535 69.784C 104.141 68.9141 106.156 69.4528 107.107 71.0146L 107.62 70.7024ZM 102.064 69.3614L 85.3954 79.0036L 85.6959 79.523L 102.365 69.8807L 102.064 69.3614ZM 85.2278 79.1021C 84.0681 79.8124 83.2879 81.0709 83.2858 82.5296L 83.8858 82.5305C 83.8876 81.2936 84.5476 80.2224 85.5412 79.6137L 85.2278 79.1021ZM 83.2858 82.53C 83.2858 83.9136 83.9819 85.1143 85.0316 85.8423L 85.3735 85.3492C 84.4752 84.7263 83.8858 83.7047 83.8858 82.53L 83.2858 82.53ZM 85.5758 86.1729L 122.984 107.771L 123.284 107.252L 85.8758 85.6532L 85.5758 86.1729ZM 123.125 107.851C 123.51 108.06 123.947 108.19 124.425 108.19L 124.425 107.59C 124.059 107.59 123.719 107.491 123.411 107.324L 123.125 107.851ZM 124.425 108.19C 125.964 108.19 127.219 106.936 127.217 105.4L 126.617 105.4C 126.619 106.604 125.633 107.59 124.425 107.59L 124.425 108.19ZM 127.217 105.4C 127.217 104.919 127.093 104.477 126.884 104.086L 126.355 104.37C 126.521 104.68 126.617 105.025 126.617 105.4L 127.217 105.4ZM 126.791 103.923L 107.719 70.872L 107.199 71.1719L 126.271 104.223L 126.791 103.923ZM 126.884 104.086C 126.853 104.028 126.819 103.971 126.791 103.923L 126.271 104.223C 126.303 104.277 126.33 104.323 126.355 104.37L 126.884 104.086ZM 122.984 107.771C 123.026 107.795 123.075 107.824 123.125 107.851L 123.411 107.324C 123.37 107.302 123.331 107.279 123.284 107.252L 122.984 107.771ZM 85.0316 85.8423C 85.2124 85.9676 85.406 86.0748 85.5758 86.1729L 85.8758 85.6532C 85.6923 85.5473 85.5282 85.4564 85.3735 85.3492L 85.0316 85.8423ZM 85.3954 79.0036C 85.3436 79.0336 85.285 79.067 85.2278 79.1021L 85.5412 79.6137C 85.5902 79.5837 85.6399 79.5554 85.6959 79.523L 85.3954 79.0036ZM 102.249 69.2565C 102.185 69.2914 102.121 69.3287 102.064 69.3614L 102.365 69.8807C 102.426 69.8454 102.48 69.8138 102.535 69.784L 102.249 69.2565ZM 107.107 71.0146C 107.138 71.0644 107.166 71.1149 107.199 71.1719L 107.719 70.872C 107.689 70.8199 107.655 70.7602 107.62 70.7024L 107.107 71.0146ZM 111.533 55.9517C 111.62 55.9055 111.706 55.855 111.782 55.811L 111.481 55.2916C 111.399 55.3392 111.327 55.3819 111.252 55.4213L 111.533 55.9517ZM 106.113 54.3435C 106.134 54.3794 106.158 54.4205 106.182 54.4606L 106.696 54.1522C 106.676 54.1177 106.656 54.0829 106.633 54.0436L 106.113 54.3435ZM 86.6843 20.4665C 86.8129 20.9657 87.1114 21.4079 87.3265 21.7806L 87.8462 21.4807C 87.5992 21.0526 87.3674 20.7129 87.2653 20.3168L 86.6843 20.4665ZM 91.8767 18.011C 91.5272 17.8091 91.1296 17.5505 90.7336 17.3558C 90.3281 17.1564 89.8816 17 89.3898 17L 89.3898 17.6C 89.7532 17.6 90.1049 17.7152 90.4688 17.8942C 90.8424 18.0779 91.1856 18.3047 91.5766 18.5305L 91.8767 18.011ZM 128.762 39.3316C 128.594 39.2171 128.413 39.1176 128.257 39.027L 127.956 39.5466C 128.128 39.6457 128.28 39.7295 128.425 39.828L 128.762 39.3316ZM 128.385 45.5058C 128.265 45.5861 128.139 45.6566 127.998 45.7382L 128.298 46.2576C 128.429 46.182 128.577 46.0989 128.718 46.0051L 128.385 45.5058ZM 81.6632 25.7593C 81.4531 25.3954 81.2305 24.9611 80.9736 24.5828C 80.7112 24.1966 80.3895 23.8301 79.947 23.5821L 79.6537 24.1056C 79.983 24.2901 80.2417 24.5732 80.4773 24.92C 80.7183 25.2748 80.9113 25.657 81.1436 26.0593L 81.6632 25.7593ZM 100.216 57.8898C 100.197 57.8567 100.178 57.8235 100.161 57.7943L 99.6415 58.0943C 99.6599 58.1262 99.6763 58.1543 99.6923 58.1828L 100.216 57.8898ZM 98.6923 63.36C 98.7034 63.3536 98.716 63.3463 98.7284 63.3391L 98.426 62.8209C 98.4153 62.8271 98.4046 62.8332 98.3926 62.8402L 98.6923 63.36ZM 81.648 73.1808C 81.7874 73.1111 81.9222 73.031 82.0424 72.9617L 81.7427 72.4419C 81.6126 72.5169 81.4986 72.5846 81.3795 72.6442L 81.648 73.1808ZM 75.8228 69.5389C 75.8228 69.5652 75.8227 69.5951 75.823 69.6247L 76.423 69.6182C 76.4227 69.5926 76.4228 69.5674 76.4228 69.5386L 75.8228 69.5389ZM 75.8028 26.0191C 75.8028 26.0198 75.8028 26.0204 75.8028 26.0211L 76.4028 26.0208C 76.4028 26.0202 76.4028 26.0197 76.4028 26.0191L 75.8028 26.0191ZM 75.8035 25.9531C 75.8029 25.9765 75.8028 25.9991 75.8028 26.0191L 76.4028 26.0191C 76.4028 26.0004 76.4029 25.9841 76.4033 25.9689L 75.8035 25.9531ZM 75.8198 95.4847C 75.8198 95.4883 75.8198 95.4919 75.8198 95.4951L 76.4198 95.4951C 76.4198 95.4916 76.4198 95.4886 76.4198 95.4855L 75.8198 95.4847ZM 128.204 126.084C 128.397 125.972 128.618 125.851 128.822 125.706L 128.475 125.217C 128.3 125.341 128.113 125.444 127.904 125.564L 128.204 126.084ZM 44.4373 107.05C 44.5022 107.178 44.5759 107.302 44.6399 107.413L 45.1594 107.113C 45.0902 106.993 45.0278 106.888 44.9724 106.779L 44.4373 107.05ZM 62.4657 72.8348C 62.7267 72.9855 63.0167 73.1636 63.3278 73.2944L 63.5604 72.7413C 63.2938 72.6292 63.0475 72.4779 62.7657 72.3152L 62.4657 72.8348ZM 15.8868 45.9175C 16.1067 46.0763 16.3462 46.2076 16.5557 46.3286L 16.8557 45.809C 16.6293 45.6783 16.4262 45.5669 16.2379 45.431L 15.8868 45.9175ZM 16.5476 38.9863C 16.3445 39.1036 16.1126 39.231 15.899 39.3841L 16.2486 39.8718C 16.4315 39.7406 16.6282 39.6326 16.8476 39.5059L 16.5476 38.9863ZM 63.005 12.1658C 62.9161 12.213 62.8286 12.2648 62.7509 12.3096L 63.0509 12.8292C 63.1358 12.7802 63.2098 12.7364 63.2866 12.6956L 63.005 12.1658ZM 68.3031 15.5279C 68.3104 15.6563 68.3088 15.7844 68.3088 15.9294L 68.9088 15.9294C 68.9088 15.7953 68.9106 15.6441 68.9021 15.4939L 68.3031 15.5279ZM 22.7911 57.8916C 22.4381 57.6877 22.0443 57.4358 21.647 57.2427C 21.242 57.0458 20.7987 56.8909 20.3114 56.8801L 20.2981 57.48C 20.6655 57.4881 21.0202 57.6051 21.3847 57.7823C 21.7568 57.9632 22.1038 58.1875 22.491 58.4111L 22.7911 57.8916ZM 59.5515 79.1295C 59.4649 79.0751 59.3749 79.0243 59.2962 78.9789L 58.9961 79.4984C 59.0822 79.5482 59.1581 79.591 59.2327 79.6378L 59.5515 79.1295ZM 59.2192 86.133C 59.3447 86.0604 59.4872 85.9804 59.6227 85.8906L 59.291 85.3906C 59.1752 85.4674 59.0543 85.5352 58.9187 85.6136L 59.2192 86.133ZM 42.357 95.879C 42.5075 95.8043 42.6527 95.7176 42.7822 95.6427L 42.4817 95.1234C 42.3416 95.2044 42.2189 95.2778 42.0904 95.3415L 42.357 95.879ZM 36.9972 94.1695C 37.0378 94.2398 37.0833 94.3203 37.1315 94.3979L 37.6412 94.0814C 37.5997 94.0145 37.5613 93.9465 37.5169 93.8696L 36.9972 94.1695ZM 18.6037 61.0951C 18.47 60.8633 18.3519 60.6768 18.2687 60.4697L 17.7119 60.6932C 17.8157 60.9517 17.967 61.1921 18.084 61.3949L 18.6037 61.0951ZM 33.3279 109.061C 33.1508 109.147 32.98 109.25 32.8284 109.338L 33.1288 109.858C 33.2948 109.762 33.4388 109.674 33.5913 109.6L 33.3279 109.061ZM 16.2933 119.608C 16.4467 119.503 16.6081 119.414 16.7899 119.309L 16.4895 118.789C 16.3234 118.886 16.132 118.991 15.9539 119.113L 16.2933 119.608ZM 113.625 67.3463C 113.626 67.3481 113.628 67.35 113.628 67.3517L 114.148 67.0517C 114.147 67.0499 114.146 67.0483 114.145 67.0467L 113.625 67.3463ZM 115.153 61.8003C 115.121 61.8188 115.084 61.8398 115.048 61.8612L 115.356 62.3762C 115.387 62.3577 115.418 62.34 115.453 62.3197L 115.153 61.8003ZM 141.386 46.6306C 141.32 46.6706 141.254 46.7084 141.181 46.7505L 141.481 47.2699C 141.549 47.2306 141.625 47.1877 141.698 47.1431L 141.386 46.6306ZM 82.1542 92.1831C 81.9636 92.073 81.7495 91.9424 81.5248 91.838L 81.272 92.3821C 81.4653 92.4719 81.6456 92.5822 81.8542 92.7027L 82.1542 92.1831ZM 141.74 38.324C 141.764 38.5659 141.504 38.7324 141.295 38.6111L 141.596 38.0919C 141.382 37.9685 141.118 38.1379 141.143 38.384L 141.74 38.324ZM 128.832 119.15C 128.62 119 128.389 118.874 128.188 118.759L 127.888 119.278C 128.107 119.405 128.303 119.511 128.485 119.64L 128.832 119.15ZM 141.287 38.6163C 141.501 38.7396 141.764 38.5694 141.74 38.324L 141.143 38.384C 141.119 38.1428 141.378 37.9755 141.587 38.0967L 141.287 38.6163ZM 77.1765 1.58548C 77.192 1.59442 77.2071 1.60312 77.2233 1.6125L 77.5234 1.09294C 77.5082 1.08417 77.4918 1.07469 77.4759 1.06554L 77.1765 1.58548ZM 76.4228 149.355C 76.4228 149.352 76.4228 149.349 76.4228 149.345L 75.8228 149.345C 75.8228 149.348 75.8228 149.352 75.8228 149.356L 76.4228 149.355ZM 0.939808 45.4713C 0.93138 45.4567 0.923657 45.4433 0.916014 45.43L 0.395036 45.7276C 0.403567 45.7425 0.412323 45.7576 0.420197 45.7713L 0.939808 45.4713ZM 68.9228 139.138C 68.9237 139.107 68.9238 139.077 68.9238 139.051L 68.3238 139.051C 68.3238 139.077 68.3237 139.099 68.3231 139.121L 68.9228 139.138ZM 31.1084 97.7231C 31.1072 97.721 31.106 97.719 31.1049 97.7171L 30.5853 98.0171C 30.5865 98.0191 30.5875 98.0209 30.5885 98.0227L 31.1084 97.7231ZM 29.5019 103.313C 29.5822 103.266 29.674 103.214 29.7623 103.159L 29.443 102.651C 29.3669 102.699 29.2894 102.743 29.2016 102.793L 29.5019 103.313ZM 63.4887 140.034C 63.643 140.301 63.8153 140.632 64.0579 140.907L 64.5078 140.51C 64.3161 140.293 64.1824 140.035 64.0082 139.734L 63.4887 140.034ZM 3.42576 118.39C 3.43921 118.383 3.45259 118.375 3.46734 118.366L 3.167 117.847C 3.15323 117.855 3.13804 117.864 3.12303 117.872L 3.42576 118.39ZM 58.1299 145.139C 58.1059 144.688 57.9522 144.282 57.7649 143.913C 57.583 143.554 57.3448 143.188 57.1615 142.871L 56.6418 143.17C 56.8506 143.532 57.0559 143.842 57.2298 144.184C 57.3984 144.516 57.513 144.837 57.5307 145.171L 58.1299 145.139ZM 63.2204 91.8307C 62.985 91.9391 62.7612 92.0757 62.5614 92.1907L 62.8609 92.7106C 63.0793 92.5848 63.2683 92.4692 63.4713 92.3757L 63.2204 91.8307ZM 67.6127 163.526C 67.5593 163.496 67.5065 163.465 67.4509 163.433L 67.1508 163.953C 67.2044 163.984 67.2607 164.016 67.317 164.048L 67.6127 163.526ZM 68.9088 95.521C 68.9088 95.5013 68.9088 95.4788 68.9086 95.4567L 68.3087 95.4615C 68.3088 95.4807 68.3088 95.4996 68.3088 95.5212L 68.9088 95.521ZM 77.2986 163.422C 77.2295 163.461 77.1639 163.5 77.0975 163.537L 77.3921 164.06C 77.4621 164.02 77.5319 163.98 77.5985 163.941L 77.2986 163.422ZM 81.6098 152.97C 81.7754 152.889 81.9346 152.794 82.0767 152.712L 81.7767 152.192C 81.623 152.281 81.4884 152.361 81.3469 152.43L 81.6098 152.97ZM 67.4521 1.64897C 67.5109 1.615 67.5668 1.58253 67.6233 1.55053L 67.3279 1.02829C 67.2684 1.06199 67.2088 1.09659 67.1521 1.12933L 67.4521 1.64897ZM 52.8561 147.06C 53.2045 147.261 53.6017 147.52 53.9965 147.714C 54.401 147.913 54.8466 148.07 55.3378 148.07L 55.3378 147.47C 54.9755 147.47 54.6248 147.355 54.2617 147.176C 53.8888 146.992 53.5469 146.766 53.1562 146.54L 52.8561 147.06ZM 68.3238 139.049C 68.3238 139.05 68.3238 139.05 68.3238 139.051L 68.9238 139.051C 68.9238 139.05 68.9238 139.05 68.9238 139.049L 68.3238 139.049ZM 142.221 125.94C 142.133 125.995 142.044 126.046 141.945 126.102L 142.245 126.622C 142.337 126.569 142.439 126.512 142.537 126.451L 142.221 125.94ZM 38.6722 110.82C 38.6168 110.724 38.5553 110.615 38.4879 110.51L 37.9831 110.834C 38.0405 110.924 38.0925 111.016 38.1525 111.12L 38.6722 110.82ZM 46.0768 101.686C 46.0392 101.708 45.9964 101.732 45.9545 101.758L 46.2637 102.272C 46.2994 102.25 46.3356 102.23 46.3763 102.206L 46.0768 101.686ZM 3.54643 126.521C 3.47468 126.479 3.40911 126.442 3.34453 126.402L 3.03142 126.914C 3.10424 126.959 3.17861 127.001 3.24633 127.04L 3.54643 126.521ZM 2.47697 39.1598C 2.58742 39.0902 2.70046 39.0267 2.82422 38.9553L 2.52426 38.4357C 2.40871 38.5024 2.28038 38.5745 2.15708 38.6522L 2.47697 39.1598ZM 15.8914 125.691C 16.1083 125.847 16.3446 125.977 16.551 126.096L 16.851 125.576C 16.6278 125.447 16.4278 125.338 16.2425 125.204L 15.8914 125.691ZM 68.9062 69.7302C 68.9098 69.6303 68.9088 69.5294 68.9088 69.4405L 68.3088 69.4405C 68.3088 69.5377 68.3097 69.6229 68.3066 69.709L 68.9062 69.7302ZM 144.329 119.324C 144.327 119.321 144.326 119.319 144.324 119.316L 143.805 119.616C 143.806 119.619 143.808 119.621 143.809 119.624L 144.329 119.324Z"/>
</defs>
</svg>
